<?xml version="1.0"?>
<svg version="1.1" xmlns="http://www.w3.org/2000/svg" width="400" height="200" style="border: dashed 2px #aaa"><path fill="#19191a" d="M25.656,123.28l0-22.56l-4.56,0l-1.2,4.56l-4.416,0l0-10.32l27.84,0l0,10.32l-4.464,0l-1.2-4.56l-4.56,0l0,22.56l4.56,1.44l0,4.08l-16.56,0l0-4.08z M47.85648,106.96l0-3.84l11.04-0.24l0,16.56c0,2.64,0.768,3.84,2.928,3.84c3.12,0,5.424-2.592,5.424-2.592l0-12.528l-3.84-1.2l0-3.84l11.04-0.24l0,20.88l3.84,0.96l0,3.744l-10.128,0.336l-0.48-3.36s-3.84,3.84-8.4,3.84c-4.8,0-7.584-3.216-7.584-8.592l0-12.528z M94.34496,102.88l0.432,3.312s3.456-3.792,6.672-3.792c2.64,0,4.464,0.864,4.464,0.864l-0.384,9.216l-4.32,0l-0.72-4.08c-2.784,0-5.184,2.688-5.184,2.688l0,12.672l4.8,1.2l0,3.84l-15.84,0l0-3.84l3.84-1.2l0-15.6l-3.84-1.2l0-3.84z M114.14544,94.96c0-2.736,1.968-4.32,4.128-4.32c2.496,0,4.032,1.296,4.032,4.32c0,2.832-2.064,4.368-4.032,4.368c-2.592,0-4.128-1.536-4.128-4.368z M122.20944,123.76l3.36,1.2l0,3.84l-14.4,0l0-3.84l3.84-1.2l0-15.6l-3.84-1.2l0-3.84l11.04-0.24l0,20.88z M142.20192,102.88l0.336,3.312s4.56-3.696,8.832-3.696c4.656,0,7.296,3.312,7.296,8.544l0,12.72l3.36,1.2l0,3.84l-13.2,0l0-3.84l2.64-1.2l0-11.424c0-2.208-1.248-3.84-3.264-3.84c-2.976,0-5.136,2.736-5.136,2.736l0,12.528l2.64,1.2l0,3.84l-13.68,0l0-3.84l3.84-1.2l0-15.6l-3.84-1.2l0-3.84z M177.6024,124.48l7.104,0c6.096,0,9.6,2.64,9.6,7.44c0,5.28-4.224,9.12-13.44,9.12c-7.536,0-12.384-1.68-12.384-6.96c0-4.128,5.04-5.76,5.04-5.76s-2.88-0.432-2.88-3.168c0-1.392,1.92-4.512,2.496-5.424c-1.152-0.768-3.696-2.832-3.696-7.488c0-6.576,4.944-9.84,11.52-9.84c2.784,0,4.752,0.72,5.664,1.152l8.256-0.192l0,3.84l-3.936,0.672c0.096,0.432,0.816,1.728,0.816,3.792c0,6.96-4.896,9.84-11.52,9.84c-1.296,0-2.256-0.24-2.448-0.24z M180.7224,107.344c-2.88,0-4.08,1.536-4.08,4.56c0,2.88,1.104,4.8,3.84,4.8c3.024,0,4.08-1.584,4.08-4.8c0-3.024-1.2-4.56-3.84-4.56z M182.7864,129.76l-5.04,0s-2.304,1.056-2.304,3.12c0,2.4,2.064,2.88,6,2.88c4.32,0,6.144-0.96,6.144-3.264c0-2.16-1.584-2.736-4.8-2.736z M199.41888,99.28l0-4.08l14.256-0.24l0,4.32l-3.504,1.44l4.128,17.28l6.72-22.656l6.48-0.384l6.432,22.992l4.608-17.232l-3.6-1.44l0-4.08l13.68-0.24l0,4.32l-3.456,1.44l-8.208,28.08l-6.816,0l-6.288-22.8l-1.152,4.56l-5.52,18.24l-6.624,0l-7.776-28.128z M266.83536,102.4c7.776,0,12.096,4.704,12.096,12.96c0,8.64-5.04,13.92-12.816,13.92c-7.824,0-12.24-4.08-12.24-13.2c0-8.64,5.136-13.68,12.96-13.68z M266.59536,108.16c-3.504,0-5.28,1.92-5.28,7.68c0,5.28,1.536,7.68,5.04,7.68c3.456,0,5.136-2.16,5.136-7.92c0-4.896-1.44-7.44-4.896-7.44z M295.70784,102.88l0.432,3.312s3.456-3.792,6.672-3.792c2.64,0,4.464,0.864,4.464,0.864l-0.384,9.216l-4.32,0l-0.72-4.08c-2.784,0-5.184,2.688-5.184,2.688l0,12.672l4.8,1.2l0,3.84l-15.84,0l0-3.84l3.84-1.2l0-15.6l-3.84-1.2l0-3.84z M322.85232,112.528l3.168,0l3.264-4.896l-2.112-0.672l0-3.84l12.384-0.24l0,4.08l-3.36,0.624l-4.464,6.288l5.376,9.936l3.648,1.152l0,3.84l-8.88,0l-5.952-11.712l-3.072,0l0,6.672l2.64,1.2l0,3.84l-13.68,0l0-3.84l3.84-1.2l0-26.976l-3.84-0.96l0-3.84l11.04-0.384l0,20.928z M350.7168,120.4l0.384,3.12s1.68,0.48,4.032,0.48c2.64,0,3.936-0.816,3.936-2.352c0-3.936-12.816-2.496-12.816-11.04c0-6,4.8-8.208,9.888-8.208c4.32,0,8.928,1.44,8.928,1.44l-0.192,7.2l-4.08,0l-0.72-2.88s-1.392-0.48-3.312-0.48c-2.064,0-3.312,0.864-3.312,2.448c0,3.888,12.816,2.208,12.816,10.512c0,5.52-4.464,8.64-11.04,8.64c-4.56,0-8.832-1.056-8.832-1.056l0-7.824l4.32,0z"/><path fill="#" d=""/></svg>
