<?xml version="1.0"?>
<svg version="1.1" xmlns="http://www.w3.org/2000/svg" width="70" height="60" style="border: dashed 2px #aaa"><path fill="#" d="M18.64,45.12l0-1.68l2.8-0.56l0-15.12l-3.64,0l-0.7,2.8l-1.82,0l0-5.04l15.26,0l0,5.04l-1.82,0l-0.7-2.8l-3.64,0l0,15.12l2.8,0.56l0,1.68l-8.54,0z M32.8808,27.2l0-1.54l7.84-0.14l0,1.68l-2.436,0.56l2.996,12.684l4.62-14.784l2.66-0.14l4.536,15.232l3.472-12.992l-2.548-0.56l0-1.54l7.56-0.14l0,1.68l-2.212,0.56l-4.928,17.36l-3.08,0l-3.36-12.88l-0.812-3.024l-0.868,3.164l-3.78,12.74l-2.8,0l-4.676-17.36z"/><path fill="#" d=""/></svg>
